<svg xmlns="http://www.w3.org/2000/svg" viewBox="0 0 64 64" id="analytics">
  <path d="M45 60a1 1 0 0 1-1 1H20a1 1 0 0 1 0-2h24a1 1 0 0 1 1 1ZM40.89 59H23.11l3.43-10h10.92l3.43 10zM5 39v3a5 5 0 0 0 5 5h44a5 5 0 0 0 5-5v-3zm28 5h-2a1 1 0 0 1 0-2h2a1 1 0 0 1 0 2zM54 5H10a5 5 0 0 0-5 5v27h54V10a5 5 0 0 0-5-5zm-2 23a3 3 0 0 1-3-3 3.09 3.09 0 0 1 .14-.86l-10.45-7.66A3 3 0 0 1 37 17a2.93 2.93 0 0 1-1-.18l-8.46 10.61A2.89 2.89 0 0 1 28 29a3 3 0 0 1-6 0 2.89 2.89 0 0 1 .12-.78l-8.37-5.79A3 3 0 0 1 12 23a3 3 0 1 1 3-3 2.89 2.89 0 0 1-.12.78l8.37 5.79A3 3 0 0 1 25 26a2.93 2.93 0 0 1 1 .18l8.48-10.61A2.89 2.89 0 0 1 34 14a3 3 0 0 1 6 0 3.09 3.09 0 0 1-.14.86l10.45 7.66A3 3 0 0 1 52 22a3 3 0 0 1 0 6z"></path>
  <circle cx="52" cy="25" r="1"></circle>
  <circle cx="37" cy="14" r="1"></circle>
  <circle cx="12" cy="20" r="1"></circle>
  <circle cx="25" cy="29" r="1"></circle>
</svg>
