<svg xmlns="http://www.w3.org/2000/svg" viewBox="0 0 100 100" id="key-idea">
  <path d="M82.343,36.141C82.343,18.983,67.834,5,49.991,5,32.166,5,17.657,18.983,17.657,36.141c0,6.93,3.382,14.526,6.66,21.874,1.71,3.839,3.484,7.848,4.78,11.773H26.091a1.4,1.4,0,0,0,0,2.8h1.462a4.163,4.163,0,0,1,.877,2.548,4.041,4.041,0,0,1-.877,2.5H26.091a1.428,1.428,0,0,0-1.4,1.419,1.4,1.4,0,0,0,1.4,1.419h1.462a4.078,4.078,0,0,1,0,5.053H26.091a1.4,1.4,0,0,0,0,2.8h8.558A7.668,7.668,0,0,0,42,95H58.007a7.667,7.667,0,0,0,7.344-6.677h8.558a1.4,1.4,0,0,0,0-2.8H72.451a4.063,4.063,0,0,1,0-5.053h1.458a1.4,1.4,0,0,0,1.4-1.419,1.428,1.428,0,0,0-1.4-1.419H72.451a4.15,4.15,0,0,1-.881-2.5,4.276,4.276,0,0,1,.881-2.548h1.458a1.4,1.4,0,0,0,0-2.8H70.822a118.041,118.041,0,0,1,4.989-12.273C79.171,50.043,82.343,42.985,82.343,36.141ZM54.706,69.788a4.826,4.826,0,0,0-2.483-3.215,5.179,5.179,0,0,0-2.21-.543,5.274,5.274,0,0,0-2.236.543,4.922,4.922,0,0,0-2.505,3.215h-2.86a7.668,7.668,0,0,1,15.176,0Zm7.849,0a12.608,12.608,0,0,0-6.763-10.144,1.349,1.349,0,0,1-.773-1.253V25.078l-4.758-4.757-3.818,3.838,1.774,1.753a2.874,2.874,0,0,1,0,4.091l-1.9,1.919,1.774,1.757a2.9,2.9,0,0,1,.838,2.043,2.84,2.84,0,0,1-.838,2.048l-1.774,1.753,1.774,1.795a2.9,2.9,0,0,1,.838,2.043,2.841,2.841,0,0,1-.838,2.048L44.981,48.5v9.9a1.367,1.367,0,0,1-.752,1.253,12.563,12.563,0,0,0-6.8,10.144h-2.8a15.3,15.3,0,0,1,7.554-12.23V47.914a1.543,1.543,0,0,1,.4-1.005l3.527-3.5-1.043-1.128-1.732-1.71a1.6,1.6,0,0,1-.418-.834,1.4,1.4,0,0,1,.418-1.171l2.775-2.8-1.043-1.128-1.732-1.753a1.349,1.349,0,0,1,0-1.962L46.234,28,43.455,25.16a1.444,1.444,0,0,1-.414-1,1.368,1.368,0,0,1,.414-1l5.805-5.8a1.433,1.433,0,0,1,2,0l6.16,6.138a1.549,1.549,0,0,1,.419,1V57.558a15.353,15.353,0,0,1,7.553,12.23Z"></path>
</svg>
