<svg xmlns="http://www.w3.org/2000/svg" viewBox="0 0 48 48" id="website-management">
  <g>
    <path fill="#020202" d="M26,13a1,1,0,0,1-.71-.29L20.58,8l-2-2H7A1,1,0,0,0,6,7V41a1,1,0,0,0,1,1H41a1,1,0,0,0,1-1V13H26Zm-7-3a1,1,0,1,1-1,1A1,1,0,0,1,19,10Zm-8,2a1,1,0,1,1,1-1A1,1,0,0,1,11,12Zm3-1a1,1,0,1,1,1,1A1,1,0,0,1,14,11ZM33,26c0,.22,0,.44,0,.67a2.57,2.57,0,0,1,.74,1.81,2.51,2.51,0,0,1-.35,1.3L32,32.23a2.58,2.58,0,0,1-1.56,1.2,2.46,2.46,0,0,1-1.32,0,8,8,0,0,1-1.16.68A2.6,2.6,0,0,1,25.42,36H22.58a2.6,2.6,0,0,1-2.49-1.89,8,8,0,0,1-1.16-.68,2.53,2.53,0,0,1-1.31,0,2.63,2.63,0,0,1-1.57-1.2l-1.42-2.46a2.58,2.58,0,0,1-.25-2A2.46,2.46,0,0,1,15,26.67c0-.23,0-.45,0-.67s0-.44,0-.67a2.46,2.46,0,0,1-.65-1.14,2.58,2.58,0,0,1,.25-2l1.42-2.46a2.63,2.63,0,0,1,1.57-1.2,2.53,2.53,0,0,1,1.31,0,8,8,0,0,1,1.16-.68A2.6,2.6,0,0,1,22.58,16h2.84a2.6,2.6,0,0,1,2.49,1.89,8,8,0,0,1,1.16.68A2.56,2.56,0,0,1,32,19.77l1.42,2.46a2.53,2.53,0,0,1,.34,1.29A2.57,2.57,0,0,1,33,25.33C33,25.56,33,25.78,33,26Z"></path>
    <path fill="#020202" d="M41 6H21.42l2 2h0l3 3H42V7A1 1 0 0 0 41 6zM27.93 25.23a2.36 2.36 0 0 0-.1-.38c0-.13-.08-.25-.13-.37a2.86 2.86 0 0 0-.37-.69 3.71 3.71 0 0 0-.23-.32q-.13-.16-.27-.3l-.3-.27-.32-.23a2.86 2.86 0 0 0-.69-.37l-.37-.13a2.36 2.36 0 0 0-.38-.1A2.52 2.52 0 0 0 24.4 22a5.34 5.34 0 0 0-.8 0 2.52 2.52 0 0 0-.37.05 1.56 1.56 0 0 0-.37.1l-.38.13a2.86 2.86 0 0 0-.69.37l-.32.23-.3.27q-.14.13-.27.3a3.71 3.71 0 0 0-.23.32 3.83 3.83 0 0 0-.37.69c-.05.12-.09.24-.13.37a2.36 2.36 0 0 0-.1.38 2.47 2.47 0 0 0-.05.38 3.39 3.39 0 0 0 0 .78 2.47 2.47 0 0 0 .05.38 2.36 2.36 0 0 0 .1.38c0 .13.08.25.13.37a2.86 2.86 0 0 0 .37.69 3.71 3.71 0 0 0 .23.32q.13.16.27.3l.3.27.32.23a2.86 2.86 0 0 0 .69.37l.37.13a2.36 2.36 0 0 0 .38.1l.38.05L24 30l.4 0 .38-.05a2.36 2.36 0 0 0 .38-.1l.37-.13a4.14 4.14 0 0 0 .69-.37l.32-.23.3-.27q.14-.13.27-.3a3.71 3.71 0 0 0 .23-.32 3.52 3.52 0 0 0 .37-.69c.05-.12.09-.24.13-.37a2.36 2.36 0 0 0 .1-.38 2.47 2.47 0 0 0 .05-.38c0-.14 0-.27 0-.4a2.42 2.42 0 0 0 0-.38A2.47 2.47 0 0 0 27.93 25.23z"></path>
  </g>
</svg>
