<svg xmlns="http://www.w3.org/2000/svg" viewBox="0 0 128 128" id="idea">
  <path d="M62 14a2.0001 2.0001 0 0 0 2-2V2a2 2 0 0 0-4 0V12A2.0001 2.0001 0 0 0 62 14zM88.87012 27.12988a1.99927 1.99927 0 0 0 2.82813 0l7.07129-7.07129a1.99979 1.99979 0 0 0-2.82812-2.82812l-7.07129 7.07129A1.99927 1.99927 0 0 0 88.87012 27.12988zM32.30176 28.12988a1.99979 1.99979 0 0 0 2.82813-2.82812l-7.07129-7.07129a1.99979 1.99979 0 0 0-2.82812 2.82813z"></path>
  <path d="M32.22 80.21c4.07 5.94 8.28 12.08 9.29 18.94.02594.35034.157 2.43262.28149 4.85H83.89v-2.68a7.63376 7.63376 0 0 1 7.8-7.62h.1c3.5.02 5.95-.99005 7.27-3.05 1.28-2 1.12-4.36.8-6.4-.15-.98-.33-1.96-.55-2.91a.57066.57066 0 0 1-.01-.22 1.08734 1.08734 0 0 1 .3-.07 1.89953 1.89953 0 0 0 .58-.09 3.65077 3.65077 0 0 0 2.39-2.02 3.45352 3.45352 0 0 0-.17-2.95 7.42706 7.42706 0 0 0-.59-.95c.15-.1.29-.2.43-.3a2.54627 2.54627 0 0 0 1.46-1.25c.73-1.44-.09-2.98-.53-3.8l-.05-.1c-.3-.58-.43-1.04-.32-1.17a3.42414 3.42414 0 0 1 1.02-.51l1.31-.5c.52-.19 1.04-.39 1.56-.58.06-.03.12-.05.18-.08a3.58674 3.58674 0 0 0 2.08-2.65 5.44494 5.44494 0 0 0-1.38-4.07 32.56687 32.56687 0 0 1-5.25-9.78 29.17733 29.17733 0 0 1-.93-7.47c-.06-1.46-.11-2.97-.29-4.49a35.53124 35.53124 0 0 0-3.43-11.48l-.94.94-.98.99-1.22 1.22A6.00335 6.00335 0 0 1 86.04 21.47l4.63-4.62A37.9343 37.9343 0 0 0 80.05 9.06 39.7747 39.7747 0 0 0 68 5.42V12a6 6 0 0 1-12 0V5.46A43.701 43.701 0 0 0 48.51 7.2 42.4749 42.4749 0 0 0 32.4 16.91l1.78 1.78 3.78 3.78A6.00335 6.00335 0 1 1 29.47 30.96L24.92 26.4a43.23378 43.23378 0 0 0-5.89 20.07c-.55 13.62 6.41 23.82 12.56 32.82zM67.73 97H56.27a2 2 0 0 1 0-4H67.73a2 2 0 0 1 0 4zM71 89H53a2 2 0 0 1 0-4H71a2 2 0 0 1 0 4zM61.96 18.12h.08c.04065.00043.08075.00519.1214.0058-.03973-.00055-.07886-.00525-.11859-.00562L62.003 18.12l-.03986.00018c-.23676.00238-.47028.02539-.70618.03345C61.49176 18.14557 61.72449 18.12238 61.96 18.12zM38.62384 44.65338A22.83438 22.83438 0 0 1 54.66095 23.31024a23.22025 23.22025 0 0 1 14.67773 0A22.85048 22.85048 0 0 1 85.37579 44.65338c.28815 7.13525-3.2262 12.529-6.96613 18.00415-2.42438 3.552-5.21832 7.436-5.8573 11.82739a44.50381 44.50381 0 0 0-.30066 4.60437A1.77931 1.77931 0 0 1 70.47882 81H53.51459a1.77442 1.77442 0 0 1-1.7666-1.91071 43.72362 43.72362 0 0 0-.30695-4.60437c-.639-4.39142-3.4267-8.27539-5.8573-11.82739C41.84381 57.18237 38.32941 51.78864 38.62384 44.65338zM108 116h-4.85a5.98359 5.98359 0 0 0-5.65-8h-67a5.98359 5.98359 0 0 0-5.65 8H20a6 6 0 0 0 0 12h88a6 6 0 0 0 0-12zm-10.5 0h-67a2 2 0 0 1 0-4h67a2 2 0 0 1 0 4z"></path>
  <path d="M60.24951,56h3.501a1.99965,1.99965,0,0,0,1.99658-1.88672l1.24951-22A1.99989,1.99989,0,0,0,65,30H59a1.99989,1.99989,0,0,0-1.99658,2.11328l1.24951,22A1.99965,1.99965,0,0,0,60.24951,56Z"></path>
  <rect width="8" height="8" x="58" y="60" rx="2" ry="2"></rect>
</svg>
