<svg xmlns="http://www.w3.org/2000/svg" viewBox="0 0 48 48" id="multitasking">
  <path d="M23,7.93V22a1,1,0,0,1-1,1H6.21a1,1,0,0,1-1-1V7.93a2,2,0,0,0,1,.28H22A2,2,0,0,0,23,7.93ZM22,1H6.21a1,1,0,0,0-1,1V6.21a1,1,0,0,0,1,1H22a1,1,0,0,0,1-1V2A1,1,0,0,0,22,1ZM42,8.21H26.21a2,2,0,0,1-1-.28V22a1,1,0,0,0,1,1H42a1,1,0,0,0,1-1V7.93A2,2,0,0,1,42,8.21ZM42,1H26.21a1,1,0,0,0-1,1V6.21a1,1,0,0,0,1,1H42a1,1,0,0,0,1-1V2A1,1,0,0,0,42,1ZM22,32.21H6.21a2,2,0,0,1-1-.28V46a1,1,0,0,0,1,1H22a1,1,0,0,0,1-1V31.93A2,2,0,0,1,22,32.21ZM22,25H6.21a1,1,0,0,0-1,1v4.21a1,1,0,0,0,1,1H22a1,1,0,0,0,1-1V26A1,1,0,0,0,22,25Zm20,7.21H26.21a2,2,0,0,1-1-.28V46a1,1,0,0,0,1,1H42a1,1,0,0,0,1-1V31.93A2,2,0,0,1,42,32.21ZM42,25H26.21a1,1,0,0,0-1,1v4.21a1,1,0,0,0,1,1H42a1,1,0,0,0,1-1V26A1,1,0,0,0,42,25Z"></path>
</svg>
