<svg xmlns="http://www.w3.org/2000/svg" viewBox="0 0 64 64" id="scalability">
  <g>
    <path fill="none" stroke="#000" stroke-linejoin="round" stroke-width="2" d="M52,35V29H47.71a15.9,15.9,0,0,0-2.48-6l3-3L44,15.74l-3,3a15.9,15.9,0,0,0-6-2.48V12H29v4.29a15.9,15.9,0,0,0-6,2.48l-3-3L15.74,20l3,3a15.9,15.9,0,0,0-2.48,6H12v6h4.29a15.9,15.9,0,0,0,2.48,6l-3,3L20,48.26l3-3a15.9,15.9,0,0,0,6,2.48V52h6V47.71a15.9,15.9,0,0,0,6-2.48l3,3L48.26,44l-3-3a15.9,15.9,0,0,0,2.48-6Z"></path>
    <circle cx="32" cy="32" r="10" fill="none" stroke="#000" stroke-linejoin="round" stroke-width="2"></circle>
    <line x1="50" x2="62" y1="14" y2="2" fill="none" stroke="#000" stroke-linejoin="round" stroke-width="2"></line>
    <polyline fill="none" stroke="#000" stroke-linejoin="round" stroke-width="2" points="55 2 62 2 62 9"></polyline>
    <line x1="14" x2="2" y1="14" y2="2" fill="none" stroke="#000" stroke-linejoin="round" stroke-width="2"></line>
    <polyline fill="none" stroke="#000" stroke-linejoin="round" stroke-width="2" points="9 2 2 2 2 9"></polyline>
    <line x1="50" x2="62" y1="50" y2="62" fill="none" stroke="#000" stroke-linejoin="round" stroke-width="2"></line>
    <polyline fill="none" stroke="#000" stroke-linejoin="round" stroke-width="2" points="55 62 62 62 62 55"></polyline>
    <line x1="14" x2="2" y1="50" y2="62" fill="none" stroke="#000" stroke-linejoin="round" stroke-width="2"></line>
    <polyline fill="none" stroke="#000" stroke-linejoin="round" stroke-width="2" points="9 62 2 62 2 55"></polyline>
  </g>
</svg>
